<?xml version="1.0" encoding="utf-8"?>
                                    <svg xmlns="http://www.w3.org/2000/svg" version="1.1" width="30" height="30"
                                        viewBox="0 0 200 200">
                                        <path
                                            d="M0 0 C5.16106555 1.20424863 7.84224334 0.87484749 12.71875 -1.16015625 C24.44417842 -5.47688075 38.54838915 -4.97565845 50 0 C53.13996278 1.82635471 56.07394011 3.85182924 59 6 C59.99 6.66 60.98 7.32 62 8 C62 8.66 62 9.32 62 10 C62.66 10 63.32 10 64 10 C71.42879132 18.43091566 75.02095013 29.84120388 76.640625 40.7578125 C76.96372781 43.16135847 76.96372781 43.16135847 78 46 C78.5775 46.28875 79.155 46.5775 79.75 46.875 C88.12392635 51.06196318 95.62225545 61.72767386 98.90625 70.390625 C103.47612656 84.86190078 101.17647165 97.15284882 94.53515625 110.265625 C93.16565613 112.70493818 91.84021128 114.89403614 90 117 C89.34 117 88.68 117 88 117 C87.7525 117.61875 87.505 118.2375 87.25 118.875 C85.79371361 121.35068687 84.62187494 121.95125002 82 123 C82 123.66 82 124.32 82 125 C81.34 125 80.68 125 80 125 C80 125.66 80 126.32 80 127 C79.01 127.66 78.02 128.32 77 129 C76.30580103 131.07883627 76.30580103 131.07883627 76 133.5 C74.50937624 141.97944991 72.07469101 149.41264433 68 157 C67.34 157 66.68 157 66 157 C65.77183594 157.73089844 65.54367188 158.46179688 65.30859375 159.21484375 C62.13373317 165.97208433 54.45156332 170.76025328 47.6875 173.5 C34.98361669 177.43946879 21.93820398 176.40907025 9.5 172.125 C3.77127082 170.45515398 0.00911611 171.96120325 -5.47265625 173.9296875 C-19.04212545 178.04711226 -32.86195926 176.26101915 -45.2578125 169.64453125 C-50.64790306 166.41201255 -55.31829918 163.35309199 -57 157 C-57.66 157 -58.32 157 -59 157 C-66.72381961 140.84798729 -66.72381961 140.84798729 -67.3125 132.8125 C-67.62978935 128.86583407 -67.62978935 128.86583407 -70.5625 126.625 C-71.366875 126.08875 -72.17125 125.5525 -73 125 C-73 124.34 -73 123.68 -73 123 C-73.66 123 -74.32 123 -75 123 C-75 122.34 -75 121.68 -75 121 C-75.66 121 -76.32 121 -77 121 C-77 120.34 -77 119.68 -77 119 C-77.66 119 -78.32 119 -79 119 C-79 118.34 -79 117.68 -79 117 C-79.66 117 -80.32 117 -81 117 C-90.45797804 105.56935796 -92.85224801 93.53556336 -92 79 C-90.81074003 71.24965327 -87.83653542 64.21070426 -83 58 C-82.34 58 -81.68 58 -81 58 C-80.75121094 57.42378906 -80.50242187 56.84757812 -80.24609375 56.25390625 C-78.82221852 53.67843288 -77.17571857 51.97988443 -75.0625 49.9375 C-74.37285156 49.26589844 -73.68320313 48.59429687 -72.97265625 47.90234375 C-71.78106358 46.75322369 -70.56317382 45.62945089 -69.30078125 44.55859375 C-67.54766657 42.4580149 -67.4537171 40.82689424 -67.125 38.125 C-65.50950276 28.1142138 -61.79925459 17.71645609 -55 10 C-54.34 10 -53.68 10 -53 10 C-53 9.34 -53 8.68 -53 8 C-37.89447028 -6.40581854 -18.75087004 -5.03341939 0 0 Z M-50.41015625 14 C-55.95936401 20.98082156 -62 30.79869092 -62 40 C-58.76592701 38.76177975 -55.77818363 37.35953664 -52.75 35.6875 C-48.06234736 33.27670721 -43.37377528 31.91573551 -38.3125 30.5625 C-31.91110246 28.82343626 -27.4678686 27.155233 -23 22 C-23 21.34 -23 20.68 -23 20 C-22.34 20 -21.68 20 -21 20 C-21 19.34 -21 18.68 -21 18 C-20.23429687 17.66355469 -20.23429687 17.66355469 -19.453125 17.3203125 C-16.00401837 15.46394619 -12.91657227 13.17269574 -9.75 10.875 C-9.1003125 10.40707031 -8.450625 9.93914063 -7.78125 9.45703125 C-6.18564517 8.30725718 -4.59256975 7.15397434 -3 6 C-18.21711895 -2.10217967 -38.75709329 1.27759714 -50.41015625 14 Z M12 6 C12.73605469 6.53109375 13.47210938 7.0621875 14.23046875 7.609375 C15.20628906 8.31578125 16.18210937 9.0221875 17.1875 9.75 C18.15042969 10.44609375 19.11335938 11.1421875 20.10546875 11.859375 C22.02210798 13.2768086 23.90161814 14.74598933 25.73828125 16.265625 C27.78948625 18.20283929 27.78948625 18.20283929 30 18 C30 18.66 30 19.32 30 20 C30.66 20 31.32 20 32 20 C32 20.66 32 21.32 32 22 C36.86600879 27.61462552 42.24523173 29.18045618 49.21630859 31.0234375 C56.92918268 33.11370175 63.88707317 36.40729897 71 40 C67.60228393 26.67420578 62.79337683 15.0087528 51 7 C39.17897881 0.54087809 24.10052921 -0.44278737 12 6 Z M-3.3125 11.875 C-4.19550781 12.40867187 -5.07851562 12.94234375 -5.98828125 13.4921875 C-6.65214844 13.98976563 -7.31601563 14.48734375 -8 15 C-8 15.66 -8 16.32 -8 17 C-8.763125 17.28875 -9.52625 17.5775 -10.3125 17.875 C-13.15029308 18.96269013 -13.15029308 18.96269013 -16 21 C-16 21.66 -16 22.32 -16 23 C-16.66 23 -17.32 23 -18 23 C-18 23.66 -18 24.32 -18 25 C-3.15 25 11.7 25 27 25 C27 24.34 27 23.68 27 23 C26.34 23 25.68 23 25 23 C25 22.34 25 21.68 25 21 C21.36676311 18.03764305 21.36676311 18.03764305 17 17 C17 16.34 17 15.68 17 15 C14.9299191 13.39639826 14.9299191 13.39639826 12.3125 11.875 C11.44238281 11.33617187 10.57226562 10.79734375 9.67578125 10.2421875 C4.45716496 7.8195306 1.43473859 8.93522855 -3.3125 11.875 Z M-28 33 C-28 33.66 -28 34.32 -28 35 C-28.66 35 -29.32 35 -30 35 C-31.58826222 36.71497772 -31.58826222 36.71497772 -33.125 38.875 C-33.66382812 39.59429687 -34.20265625 40.31359375 -34.7578125 41.0546875 C-36.17939632 42.89626006 -36.17939632 42.89626006 -36 45 C-36.66 45 -37.32 45 -38 45 C-38.66 46.98 -39.32 48.96 -40 51 C-40.66 51 -41.32 51 -42 51 C-42.66 52.093125 -43.32 53.18625 -44 54.3125 C-44.37125 54.92738281 -44.7425 55.54226562 -45.125 56.17578125 C-46.21623999 58.11361926 -46.21623999 58.11361926 -46 61 C-46.66 61 -47.32 61 -48 61 C-50.84145058 66.24575491 -53.14887824 71.63508828 -55.3125 77.1875 C-55.59109863 77.87650391 -55.86969727 78.56550781 -56.15673828 79.27539062 C-57.68591731 83.28717968 -58.36647253 85.9005824 -57 90 C-56.72285156 90.89074219 -56.44570313 91.78148437 -56.16015625 92.69921875 C-51.52938133 105.30613267 -44.84728728 119.77779646 -36 130 C-35.34 130 -34.68 130 -34 130 C-33.773125 130.53625 -33.54625 131.0725 -33.3125 131.625 C-31.0190569 135.77503989 -28.73607536 139.30262319 -24.23828125 141.109375 C-6.90495153 145.87656339 16.97536518 146.81708967 34.0625 140.8125 C37.81858505 138.49491561 40.57227158 135.6905029 43 132 C43 131.34 43 130.68 43 130 C43.66 130 44.32 130 45 130 C46.64667969 127.69832133 48.15053739 125.40978501 49.625 123 C50.0679541 122.28247559 50.5109082 121.56495117 50.96728516 120.82568359 C55.11604246 113.9974275 58.79228796 106.98100327 62.17773438 99.74658203 C62.91361026 98.18350124 63.68133156 96.63550534 64.453125 95.08984375 C66.71814404 90.20495269 67.52611004 86.78446092 65.9765625 81.56640625 C63.31501901 74.57186997 60.42077602 67.66064561 57 61 C56.34 61 55.68 61 55 61 C54.896875 60.46375 54.79375 59.9275 54.6875 59.375 C53.81907303 56.37497956 52.44379704 53.7620465 51 51 C50.34 51 49.68 51 49 51 C48.01 48.03 48.01 48.03 47 45 C46.34 45 45.68 45 45 45 C44.62875 43.9171875 44.62875 43.9171875 44.25 42.8125 C42.87730408 39.72393418 41.27646704 37.48988582 39 35 C38.34 35 37.68 35 37 35 C37 34.34 37 33.68 37 33 C27.99207197 27.99150793 16.68824908 28.67990171 6.65478516 28.73925781 C4.50264326 28.74998682 2.35133567 28.73929402 0.19921875 28.7265625 C-14.38698276 28.51803073 -14.38698276 28.51803073 -28 33 Z M47 36 C48.37840216 38.83338222 49.86418386 41.55688806 51.5 44.25 C52.13421875 45.30960938 52.13421875 45.30960938 52.78125 46.390625 C53.1834375 46.92171875 53.585625 47.4528125 54 48 C54.66 48 55.32 48 56 48 C56.08507812 48.51046875 56.17015625 49.0209375 56.2578125 49.546875 C57.31309363 53.03485685 59.11417739 56.08012626 60.875 59.25 C63.68598686 64.3991149 66.17346529 69.40623745 68 75 C68.66 75 69.32 75 70 75 C70.81568903 70.68121791 71.45376642 66.36105841 72 62 C72.12665039 61.01435059 72.12665039 61.01435059 72.25585938 60.00878906 C72.76745435 55.52905362 72.92709086 51.42354781 72 47 C69.21249327 43.69787665 65.99557115 42.47871581 62 41 C60.84886719 40.52046875 59.69773438 40.0409375 58.51171875 39.546875 C52.92719509 37.02844683 52.92719509 37.02844683 47 36 Z M-53 41 C-54.52560547 41.56460938 -54.52560547 41.56460938 -56.08203125 42.140625 C-59.05030762 43.48250674 -60.89281382 44.50379483 -63 47 C-64.06270706 52.07063083 -63.65494871 56.90289919 -63 62 C-62.84015625 63.27617188 -62.6803125 64.55234375 -62.515625 65.8671875 C-62.07367453 68.92735967 -61.57375575 71.96216819 -61 75 C-60.34 75 -59.68 75 -59 75 C-58.70867188 74.26136719 -58.41734375 73.52273437 -58.1171875 72.76171875 C-55.53518738 66.37167443 -52.6811401 60.34465501 -49.234375 54.375 C-48.1123525 52.2161719 -47.46194748 50.37572988 -47 48 C-46.34 48 -45.68 48 -45 48 C-43.44109618 46.08692348 -43.44109618 46.08692348 -41.9375 43.6875 C-41.41027344 42.88699219 -40.88304688 42.08648437 -40.33984375 41.26171875 C-38.86992451 38.96219707 -38.86992451 38.96219707 -38 36 C-43.10932484 36 -48.35668621 39.06571923 -53 41 Z M-73.1875 55.875 C-81.97180982 64.74323634 -86.28318171 73.88350534 -87.0390625 86.27734375 C-86.96589018 93.25066571 -85.30402158 99.85365418 -82 106 C-81.34 106 -80.68 106 -80 106 C-79.855625 106.61875 -79.71125 107.2375 -79.5625 107.875 C-79.06847775 110.03258322 -79.06847775 110.03258322 -78 112 C-77.34 112 -76.68 112 -76 112 C-76 112.66 -76 113.32 -76 114 C-75.34 114 -74.68 114 -74 114 C-74 114.66 -74 115.32 -74 116 C-73.34 116 -72.68 116 -72 116 C-72 116.66 -72 117.32 -72 118 C-71.34 118 -70.68 118 -70 118 C-70 118.66 -70 119.32 -70 120 C-69.34 120 -68.68 120 -68 120 C-67.95512451 119.39639648 -67.91024902 118.79279297 -67.86401367 118.17089844 C-67.6491107 115.36297571 -67.42104989 112.55643472 -67.1875 109.75 C-67.10346924 108.7396167 -67.01943848 107.7292334 -66.93286133 106.68823242 C-66.44790609 101.36570953 -65.76778554 96.44161643 -64.1875 91.3125 C-63.00960526 87.26813385 -63.03000622 84.91705049 -64.3515625 80.9296875 C-66.14478068 74.90376422 -66.75030341 69.06561456 -67.1875 62.8125 C-67.3102832 61.24145508 -67.3102832 61.24145508 -67.43554688 59.63867188 C-67.63315554 57.09300733 -67.82116459 54.54704011 -68 52 C-70.06861992 52 -71.82314048 54.55406231 -73.1875 55.875 Z M77 52 C76.95512451 52.63389648 76.91024902 53.26779297 76.86401367 53.92089844 C75.34454936 74.75818482 75.34454936 74.75818482 73.1875 81.75 C71.76104869 86.7568441 72.42554069 89.65809251 74.09375 94.51171875 C76.23445228 102.7515771 76.37567185 111.52953713 77 120 C77.66 120 78.32 120 79 120 C79 119.34 79 118.68 79 118 C79.66 118 80.32 118 81 118 C81 117.34 81 116.68 81 116 C81.66 116 82.32 116 83 116 C83 115.34 83 114.68 83 114 C83.66 114 84.32 114 85 114 C85 113.34 85 112.68 85 112 C85.66 112 86.32 112 87 112 C94.56016899 102.48134713 96.93802339 91.36816042 95.69140625 79.453125 C93.48443406 68.43073281 86.34817109 58.23211406 77 52 Z M-61 97 C-63.50127077 110.95101267 -63.50127077 110.95101267 -63 125 C-61.27377278 126.98535727 -61.27377278 126.98535727 -59 128 C-58.01 128 -57.02 128 -56 128 C-56 128.66 -56 129.32 -56 130 C-49.83373752 133.37399268 -43.82207807 135.34464282 -37 137 C-37.66 135.68 -38.32 134.36 -39 133 C-39.66 133 -40.32 133 -41 133 C-41.2475 132.319375 -41.495 131.63875 -41.75 130.9375 C-43.24197908 127.43134917 -45.06835511 124.28379632 -47 121 C-47.66 121 -48.32 121 -49 121 C-49.12761719 120.41734375 -49.25523438 119.8346875 -49.38671875 119.234375 C-49.98796834 117.04383509 -50.7690552 115.2620609 -51.8125 113.25 C-52.16570313 112.5590625 -52.51890625 111.868125 -52.8828125 111.15625 C-53.25148438 110.4446875 -53.62015625 109.733125 -54 109 C-54.73297786 107.58530147 -55.46227491 106.16868849 -56.1875 104.75 C-56.51105469 104.12609375 -56.83460937 103.5021875 -57.16796875 102.859375 C-58.03238 100.92763906 -58.54797553 99.06378849 -59 97 C-59.66 97 -60.32 97 -61 97 Z M68 97 C67.78085938 97.59425781 67.56171875 98.18851562 67.3359375 98.80078125 C65.06840577 104.72770362 62.36102438 110.16605955 59.171875 115.65234375 C57.776691 118.01004794 57.776691 118.01004794 58 121 C57.34 121 56.68 121 56 121 C55.18432826 122.43570266 54.37257907 123.87363434 53.5625 125.3125 C53.11003906 126.11300781 52.65757812 126.91351563 52.19140625 127.73828125 C50.88909452 130.06211429 50.88909452 130.06211429 50 133 C49.34 133 48.68 133 48 133 C47.34 134.32 46.68 135.64 46 137 C52.82207807 135.34464282 58.83373752 133.37399268 65 130 C65 129.34 65 128.68 65 128 C65.598125 127.87625 66.19625 127.7525 66.8125 127.625 C69.26231348 127.04524015 69.26231348 127.04524015 72 125 C73.21678043 115.73676833 71.55483112 106.13463285 70 97 C69.34 97 68.68 97 68 97 Z M-62 132 C-59.40881944 145.02409174 -54.34899769 156.7480689 -43.2265625 164.57421875 C-35.86568133 169.28776547 -29.52462607 170.36334232 -20.875 170.4375 C-19.60414551 170.45272705 -19.60414551 170.45272705 -18.30761719 170.46826172 C-12.57514666 170.38886152 -8.25668569 169.2884186 -3 167 C-5.75398857 164.10006272 -8.56232553 161.79674929 -11.875 159.5625 C-14.87504425 157.50937237 -17.75314704 155.44400798 -20.5 153.0625 C-22.71696225 150.78787235 -22.71696225 150.78787235 -25 151 C-25 150.34 -25 149.68 -25 149 C-25.66 149 -26.32 149 -27 149 C-27 148.34 -27 147.68 -27 147 C-27.66 147 -28.32 147 -29 147 C-29 146.34 -29 145.68 -29 145 C-29.57331055 144.81937012 -30.14662109 144.63874023 -30.73730469 144.45263672 C-41.57561523 141.01159268 -52.06205678 137.61709834 -62 132 Z M65.03320312 134.59179688 C56.27031206 139.17332706 47.51637618 142.36781084 38 145 C38 145.66 38 146.32 38 147 C37.34 147 36.68 147 36 147 C36 147.66 36 148.32 36 149 C35.34 149 34.68 149 34 149 C34 149.66 34 150.32 34 151 C33.46117187 151.23976562 32.92234375 151.47953125 32.3671875 151.7265625 C29.37757129 153.33483789 26.81970566 155.31111602 24.125 157.375 C20.16361298 160.40429595 16.17125678 163.2731187 12 166 C12.88553495 168.33891013 12.88553495 168.33891013 15.94921875 169.1015625 C25.55233305 171.59352537 38.95886558 171.83148491 47.90234375 167.3203125 C55.44990877 162.56970361 60.57461548 157.79517273 65 150 C65.39058594 149.34 65.78117187 148.68 66.18359375 148 C68.99588659 142.89048628 70.10708301 137.73346697 71 132 C68.82267533 132 66.92485838 133.59528283 65.03320312 134.59179688 Z M-19 147 C-16.19195732 149.96404505 -13.81684226 152.44499019 -10 154 C-10 154.66 -10 155.32 -10 156 C-8.02 156.66 -6.04 157.32 -4 158 C-4 158.66 -4 159.32 -4 160 C-1.08468223 161.7545894 1.68518513 163.18278832 5 164 C8.05108445 163.19840146 10.43689549 161.81582336 13 160 C13 159.34 13 158.68 13 158 C14.98 157.34 16.96 156.68 19 156 C19 155.34 19 154.68 19 154 C19.556875 153.773125 20.11375 153.54625 20.6875 153.3125 C23.63246684 151.64103234 25.68156544 149.44723648 28 147 C26.98808594 147.16242188 25.97617188 147.32484375 24.93359375 147.4921875 C18.99723981 148.23145622 13.04721338 148.14934226 7.07348633 148.13037109 C5.07048129 148.12502132 3.06745671 148.13084771 1.06445312 148.13671875 C-5.70889337 148.12994202 -12.28856596 147.92825542 -19 147 Z "
                                            fill="#65A63A" transform="translate(95,14)" />
                                        <path
                                            d="M0 0 C5.52292348 3.42642912 9.89024017 8.02621885 12.0234375 14.26171875 C12.0853125 15.12796875 12.1471875 15.99421875 12.2109375 16.88671875 C12.26121094 17.55574219 12.31148437 18.22476563 12.36328125 18.9140625 C12.59658387 24.37334379 12.15778698 29.18469247 9.2109375 33.88671875 C4.47520017 39.04219388 -0.26344516 43.3049503 -7.40234375 44.22265625 C-14.97632589 44.33226525 -20.13656908 43.27935098 -25.765625 38.05078125 C-31.25027725 32.15985846 -33.19163339 27.07951998 -32.9765625 19.0546875 C-32.42434188 12.66963655 -29.57673337 7.63671839 -25.0546875 3.17578125 C-17.91614642 -2.54041894 -8.48202333 -3.38568158 0 0 Z "
                                            fill="#6BAF3D" transform="translate(109.7890625,79.11328125)" />
                                    </svg>
